<svg xmlns="http://www.w3.org/2000/svg" viewBox="0 0 24 24"><path fill="none" stroke="#303c42" stroke-linecap="round" stroke-linejoin="round" d="m.5 13.5 4.1.8c.5.1.9.6.8 1.1l-.7 5.2c-.1.5-.5.9-1 .9H.5v-8zm5 2c1-.3 2-.5 3-.5 1.6 0 2.5 1.1 4.5 1.5s3.5.9 3.5 2-1.6 1.6-7 0"/><path fill="none" stroke="#303c42" stroke-linecap="round" stroke-linejoin="round" d="M16.5 19c1.5-.5 3-.8 4.5-1 1.2 0 2.5.5 2.5 1.5-1.7.8-7.7 4-10 4s-8.5-3-8.5-3m13-6c4.8-2.4 5.5-3.6 5.5-8.5V2.5L18 .5l-5.5 2V6c0 4.9.7 6.1 5.5 8.5z"/><path fill="none" stroke="#303c42" stroke-linecap="round" stroke-linejoin="round" d="M14.5 3.9v3.6H18V2.6l-3.5 1.3zM18 7.5v4.8c2.8-1.4 3.4-2.3 3.5-4.8H18z"/></svg>
